Coordinates
version=1
nRows=24
nColumns=22
inDegrees=yes

Units are S.I. units (second, meters, Newtons, ...)
If the header above contains a line with 'inDegrees', this indicates whether rotational values are in degrees (yes) or radians (no).

endheader
time	pelvis_tilt	pelvis_list	pelvis_rotation	pelvis_tx	pelvis_ty	pelvis_tz	hip_flexion_r	hip_adduction_r	hip_rotation_r	knee_angle_r	ankle_angle_r	subtalar_angle_r	hip_flexion_l	hip_adduction_l	hip_rotation_l	knee_angle_l	ankle_angle_l	subtalar_angle_l	lumbar_extension	lumbar_bending	lumbar_rotation
      4.24000000	     -4.64824874	      2.08157037	     -3.41211562	     -0.87298755	      0.92337600	      0.09344111	     -5.77016786	     -3.56291158	     -8.10495095	    -23.30656021	     11.39509176	     11.36281773	     24.21195310	      2.25730383	    -10.85789449	    -22.21838808	      4.72486154	     -6.83095167	     -4.37578943	     -7.21518059	     11.02117225
      4.25000000	     -4.52668237	      1.84781027	     -3.91206404	     -0.88187334	      0.92299241	      0.09576977	     -5.56642234	     -3.15896909	     -7.88637862	    -22.93473397	     12.58426939	     10.58884642	     24.73166379	      1.61951140	    -11.18725438	    -22.40837392	      4.28380669	     -6.14358838	     -4.88037991	     -6.95186211	     11.25014108
      4.26000000	     -4.36668852	      1.56995988	     -4.40821777	     -0.89077328	      0.92272914	      0.09811919	     -5.36924412	     -2.69754076	     -7.73500415	    -22.61718614	     13.68077103	      9.72856202	     25.16874252	      0.93544695	    -11.50151100	    -22.54409390	      3.84293935	     -5.38783633	     -5.44135586	     -6.65714000	     11.48097292
      4.27000000	     -4.17871016	      1.25708540	     -4.88514015	     -0.89962887	      0.92257383	      0.10047132	     -5.19659158	     -2.18480006	     -7.66717754	    -22.31219815	     14.67576280	      8.78005274	     25.52396508	      0.22323912	    -11.79237761	    -22.60992560	      3.38894815	     -4.55135332	     -6.03636862	     -6.34308407	     11.69771288
      4.28000000	     -3.96454396	      0.91038887	     -5.36961555	     -0.90840201	      0.92252426	      0.10286649	     -5.06369663	     -1.62274188	     -7.63204735	    -21.98918468	     15.55651084	      7.81604652	     25.78936269	     -0.52640781	    -12.10299269	    -22.60061316	      2.98908539	     -3.69824892	     -6.65018758	     -6.01427541	     11.95625235
      4.29000000	     -3.74807775	      0.56978406	     -5.78192529	     -0.91710124	      0.92253054	      0.10517834	     -4.94770577	     -1.05503677	     -7.73066691	    -21.66255792	     16.34537955	      6.73363430	     25.99463191	     -1.23203520	    -12.34027283	    -22.48660709	      2.44785546	     -2.65134894	     -7.26401915	     -5.70934990	     12.10189043
      4.30000000	     -3.50643159	      0.21139185	     -6.19910882	     -0.92569809	      0.92261244	      0.10753166	     -4.88711890	     -0.45811854	     -7.80592334	    -21.29728551	     17.00632376	      5.69551897	     26.11474411	     -1.95981544	    -12.61808912	    -22.30079517	      1.95944928	     -1.59654895	     -7.89087069	     -5.40658544	     12.25727155
      4.31000000	     -3.26710834	     -0.13598145	     -6.56892499	     -0.93414570	      0.92270777	      0.10984516	     -4.87826074	      0.13845423	     -7.91596959	    -20.85903783	     17.58890109	      4.67701687	     26.18305398	     -2.65625995	    -12.87491491	    -22.03137848	      1.45098204	     -0.41437104	     -8.48954484	     -5.13393568	     12.37881066
      4.32000000	     -3.02831318	     -0.46728597	     -6.89639200	     -0.94245612	      0.92279646	      0.11211926	     -4.91968776	      0.72738665	     -8.02208879	    -20.35176910	     18.10169713	      3.70022259	     26.21284209	     -3.32224043	    -13.11750866	    -21.70262673	      0.92450905	      0.90007074	     -9.06226620	     -4.89248814	     12.44425087
      4.33000000	     -2.79085089	     -0.78016173	     -7.18086550	     -0.95063836	      0.92286379	      0.11433895	     -5.00183984	      1.30311150	     -8.10842409	    -19.78894145	     18.55444140	      2.77707367	     26.21585394	     -3.95661017	    -13.33880695	    -21.33172708	      0.39216755	      2.34791099	     -9.61012053	     -4.68032982	     12.45717439
      4.34000000	     -2.56661583	     -1.06574266	     -7.42102031	     -0.95869130	      0.92287284	      0.11649429	     -5.10603198	      1.85569298	     -8.17639116	    -19.17781135	     18.97698652	      1.91551561	     26.21707238	     -4.55246450	    -13.52588961	    -20.93555313	     -0.14810892	      3.93850263	    -10.11585553	     -4.50269875	     12.41796365
      4.35000000	     -2.35587739	     -1.33158489	     -7.61401795	     -0.96660650	      0.92282281	      0.11859161	     -5.24111003	      2.40102657	     -8.18061302	    -18.50026975	     19.36051382	      1.12658579	     26.22782529	     -5.11716534	    -13.64894253	    -20.53582931	     -0.67351038	      5.60142098	    -10.57823537	     -4.35035199	     12.33320779
      4.36000000	     -2.18398067	     -1.54688480	     -7.76828664	     -0.97445280	      0.92263725	      0.12057405	     -5.29744151	      2.88202606	     -8.23544472	    -17.89898384	     19.80655510	      0.40022995	     26.29526076	     -5.62293898	    -13.69767217	    -20.15627090	     -1.24717281	      7.40457700	    -10.97653611	     -4.24416095	     12.18907071
      4.37000000	     -2.04017110	     -1.74977265	     -7.88856841	     -0.98220589	      0.92235772	      0.12247437	     -5.31648816	      3.35084163	     -8.27835847	    -17.32292876	     20.22750654	     -0.26034738	     26.41286528	     -6.11047471	    -13.63863037	    -19.82457656	     -1.79771563	      9.21215390	    -11.32587964	     -4.14365734	     12.01246864
      4.38000000	     -1.93219088	     -1.93657779	     -7.98116787	     -0.98987949	      0.92198624	      0.12427600	     -5.26560590	      3.79561109	     -8.33804988	    -16.81323178	     20.65244302	     -0.85728492	     26.60101477	     -6.57786641	    -13.45616346	    -19.57282304	     -2.34064481	     10.94904388	    -11.62204713	     -4.04767807	     11.80790054
      4.39000000	     -1.85031124	     -2.12641940	     -8.05385577	     -0.99747422	      0.92157012	      0.12600367	     -5.14440303	      4.23603046	     -8.39173252	    -16.39330758	     21.05038471	     -1.41171449	     26.84751575	     -7.04570012	    -13.14204196	    -19.41977361	     -2.85580384	     12.58579512	    -11.88260865	     -3.94201668	     11.60117003
      4.40000000	     -1.79672900	     -2.33230872	     -8.09426639	     -1.00495291	      0.92115170	      0.12763033	     -4.97204997	      4.68779222	     -8.43108681	    -16.02558497	     21.39032801	     -1.91694519	     27.15851374	     -7.51209938	    -12.62939116	    -19.39262699	     -3.32340943	     13.99771866	    -12.10594443	     -3.80281537	     11.37102583
      4.41000000	     -1.75906384	     -2.57741732	     -8.10090138	     -1.01231657	      0.92079232	      0.12914122	     -4.73661540	      5.16392854	     -8.50048692	    -15.76019704	     21.63213039	     -2.37318133	     27.53190220	     -7.99682558	    -11.92603005	    -19.53924159	     -3.72880487	     15.14804871	    -12.31461822	     -3.60607117	     11.14990373
      4.42000000	     -1.72029856	     -2.86586037	     -8.06769627	     -1.01952824	      0.92057371	      0.13050500	     -4.45424079	      5.66274213	     -8.58598097	    -15.60401293	     21.71858363	     -2.72885193	     27.93873837	     -8.49018262	    -11.05240097	    -19.86335138	     -4.02090200	     15.92608618	    -12.52976177	     -3.33944710	     10.88183081
      4.43000000	     -1.69795931	     -3.15541835	     -8.03557089	     -1.02654882	      0.92049740	      0.13181337	     -4.11204586	      6.14271669	     -8.63771042	    -15.53707671	     21.78248316	     -3.06055067	     28.39554252	     -8.97712742	    -10.12041196	    -20.39689868	     -4.27665318	     16.60922441	    -12.71056503	     -3.07266424	     10.69835455
      4.44000000	     -1.65432949	     -3.46274592	     -7.96570160	     -1.03335928	      0.92065721	      0.13295472	     -3.74323063	      6.61240344	     -8.69911106	    -15.57772738	     21.69667258	     -3.27395430	     28.85125036	     -9.43837083	     -9.12487200	    -21.11990441	     -4.38106420	     16.93606922	    -12.91171260	     -2.76526407	     10.46576606
      4.45000000	     -1.55818296	     -3.75316905	     -7.85762439	     -1.03988189	      0.92111574	      0.13393564	     -3.41439734	      7.03463966	     -8.78553485	    -15.66029864	     21.47987009	     -3.37541844	     29.24905534	     -9.83272617	     -8.12186699	    -22.00360070	     -4.31231265	     16.96306168	    -13.15169272	     -2.46786495	     10.21041251
      4.46000000	     -1.51064839	     -3.99712046	     -7.73966678	     -1.04618994	      0.92168584	      0.13479381	     -2.98192805	      7.39228847	     -8.89338800	    -15.83829640	     21.22448536	     -3.45486843	     29.69514760	    -10.15333322	     -7.15210786	    -23.03205739	     -4.13170310	     16.78432915	    -13.30797184	     -2.20310543	      9.98845694
      4.47000000	     -1.40437451	     -4.17653864	     -7.57568970	     -1.05217992	      0.92254121	      0.13549663	     -2.62860587	      7.66504024	     -9.03382317	    -15.99287186	     20.91529358	     -3.47410293	     30.04066367	    -10.35188547	     -6.22673833	    -24.14053349	     -3.78697710	     16.32317729	    -13.49663443	     -2.00416972	      9.71782041
